<svg width="24" height="24" viewBox="0 0 24 24" xmlns="http://www.w3.org/2000/svg">
<path d="M12 2A10 10 0 1 0 12 22A10 10 0 1 0 12 2Z" fill="#000000"/>
<path d="M10.9585 5.76011C11.3093 5.48529 11.7583 5.33333 12.2155 5.33333C12.6728 5.33333 13.1218 5.48529 13.4726 5.76011L18.4726 9.76011C18.8234 10.0349 19.0305 10.4532 19.0305 10.9029V13.0971C19.0305 13.5468 18.8234 13.9651 18.4726 14.2399L13.4726 18.2399C13.1218 18.5147 12.6728 18.6667 12.2155 18.6667C11.7583 18.6667 11.3093 18.5147 10.9585 18.2399L5.95851 14.2399C5.60769 13.9651 5.40058 13.5468 5.40058 13.0971V10.9029C5.40058 10.4532 5.60769 10.0349 5.95851 9.76011L10.9585 5.76011Z" fill="#ffffff" transform="rotate(-15 12 12)" />
</svg>